<?xml version="1.0" encoding="UTF-8" standalone="no"?>
<!-- Created with Inkscape (http://www.inkscape.org/) -->

<svg
   width="210mm"
   height="297mm"
   viewBox="0 0 210 297"
   version="1.1"
   id="svg915"
   inkscape:version="1.1.1 (3bf5ae0d25, 2021-09-20)"
   sodipodi:docname="Engrenages.svg"
   xmlns:inkscape="http://www.inkscape.org/namespaces/inkscape"
   xmlns:sodipodi="http://sodipodi.sourceforge.net/DTD/sodipodi-0.dtd"
   xmlns="http://www.w3.org/2000/svg"
   xmlns:svg="http://www.w3.org/2000/svg">
  <sodipodi:namedview
     id="namedview917"
     pagecolor="#ffffff"
     bordercolor="#666666"
     borderopacity="1.0"
     inkscape:pageshadow="2"
     inkscape:pageopacity="0.0"
     inkscape:pagecheckerboard="0"
     inkscape:document-units="mm"
     showgrid="false"
     inkscape:zoom="1.5554293"
     inkscape:cx="430.74925"
     inkscape:cy="463.85908"
     inkscape:window-width="2560"
     inkscape:window-height="1351"
     inkscape:window-x="-9"
     inkscape:window-y="-9"
     inkscape:window-maximized="1"
     inkscape:current-layer="layer1" />
  <defs
     id="defs912" />
  <g
     inkscape:label="Calque 1"
     inkscape:groupmode="layer"
     id="layer1">
    <path
       style="fill:none;stroke-width:0.352778;stroke:#000000;stroke-opacity:1"
       d="m 55.520719,198.40678 c -0.58208,-0.0686 -1.87597,-0.21304 -2.87531,-0.32091 l -1.81696,-0.19614 1.34643,-5.09428 c 0.74054,-2.80185 1.24068,-5.09677 1.11141,-5.09981 -1.01937,-0.024 -7.06184,-1.52301 -9.04153,-2.24306 -1.35108,-0.49141 -2.47484,-0.8612 -2.49723,-0.82175 -0.0224,0.0394 -0.64302,2.31768 -1.37916,5.06272 l -1.33843,4.99099 -1.27961,-0.52465 c -2.68367,-1.10032 -7.03285,-3.45026 -9.74628,-5.26609 -4.81222,-3.22034 -4.74328,-2.43218 -0.57832,-6.61136 l 3.63021,-3.64261 -4.31541,-4.31542 -4.31541,-4.31541 -3.64261,3.63021 c -3.49699,3.48509 -3.6642,3.60251 -4.18267,2.93706 -3.50055,-4.49286 -8.88565,-14.62788 -7.77232,-14.62788 0.27681,0 9.5271,-2.52725 9.63599,-2.63262 0.0556,-0.0538 -0.20522,-0.87508 -0.57965,-1.825 -0.57073,-1.44795 -1.84447,-6.37535 -2.36813,-9.16097 -0.13768,-0.73241 -0.20565,-0.72441 -5.15383,0.60696 -2.75787,0.74204 -5.06188,1.30159 -5.12002,1.24344 -0.4447,-0.44469 -0.75651,-9.31474 -0.45652,-12.98652 0.19294,-2.36148 0.38983,-4.33104 0.43752,-4.3768 0.0477,-0.0458 2.30923,0.51852 5.02562,1.25397 2.71638,0.73545 4.98734,1.29396 5.04656,1.24113 0.0592,-0.0528 0.39647,-1.50281 0.74946,-3.22218 0.35299,-1.71937 1.05362,-4.3085 1.55697,-5.75362 0.50334,-1.44512 0.88046,-2.65303 0.83803,-2.68423 -0.0424,-0.0312 -2.32669,-0.65369 -5.07615,-1.3833 l -4.99902,-1.32657 1.22227,-2.69199 c 1.65361,-3.642 3.67831,-7.1396 5.82378,-10.06044 l 1.78463,-2.42957 3.62225,3.60993 3.62226,3.60993 4.31539,-4.31539 4.31539,-4.31539 -3.60993,-3.62226 -3.60993,-3.622261 2.42957,-1.78462 c 2.92084,-2.14548 6.41844,-4.17016 10.06045,-5.82378 l 2.69198,-1.22227 1.32657,4.99902 c 0.72961,2.74946 1.3521,5.03372 1.3833,5.07615 0.0312,0.0424 1.23911,-0.33469 2.68423,-0.83804 1.44512,-0.50334 4.03425,-1.20397 5.75362,-1.55696 1.71937,-0.35299 3.16935,-0.69024 3.22218,-0.74947 0.0528,-0.0592 -0.50568,-2.33017 -1.24113,-5.04655 -0.73545,-2.71639 -1.29937,-4.97828 -1.25317,-5.02642 0.0462,-0.0481 2.07375,-0.2491 4.50566,-0.44657 3.02404,-0.24556 5.7399,-0.24349 8.59216,0.007 2.29377,0.20108 4.21547,0.41058 4.27046,0.46556 0.055,0.055 -0.50716,2.35641 -1.2492,5.11428 -1.33136,4.94817 -1.33937,5.01614 -0.60696,5.15382 2.78562,0.52366 7.71302,1.7974 9.16097,2.36813 0.94992,0.37443 1.77117,0.63527 1.825,0.57965 0.10537,-0.10889 2.63262,-9.35919 2.63262,-9.63599 0,-1.11333 10.13502,4.27176 14.62788,7.77231 0.66545,0.51848 0.54804,0.68569 -2.93706,4.182681 l -3.63021,3.64261 4.31541,4.31541 4.31542,4.31541 3.642611,-3.63021 c 4.17919,-4.16496 3.39102,-4.2339 6.61136,0.57832 1.81583,2.71343 4.16577,7.06261 5.26609,9.74628 l 0.52465,1.27961 -4.99099,1.33843 c -2.74504,0.73614 -5.02327,1.35676 -5.06272,1.37915 -0.0394,0.0224 0.33034,1.14616 0.82175,2.49724 0.72005,1.97968 2.21909,8.02216 2.24307,9.04153 0.003,0.12926 2.28997,-0.36877 5.08208,-1.10673 l 5.07655,-1.34175 0.20169,1.28312 c 0.49456,3.14625 0.61765,8.99479 0.26032,12.36867 -0.2142,2.02247 -0.43331,3.72107 -0.4869,3.77466 -0.0536,0.0536 -2.31468,-0.50614 -5.02463,-1.24384 -2.70996,-0.7377 -4.9648,-1.31391 -5.01075,-1.28046 -0.046,0.0335 -0.32483,1.33274 -0.61973,2.88731 -0.2949,1.55457 -0.99533,4.18484 -1.55651,5.84503 l -1.02033,3.01855 5.04539,1.31958 5.04539,1.31958 -0.36273,1.04053 c -1.03539,2.97012 -6.14559,11.71983 -8.08859,13.84933 -0.19115,0.20949 -1.71189,-1.05533 -3.94681,-3.28265 l -3.635841,-3.62347 -4.31544,4.31544 -4.31543,4.31544 3.54723,3.55935 c 1.95098,1.95763 3.54723,3.65813 3.54723,3.77887 0,0.73504 -11.07189,7.29914 -14.08112,8.34816 l -0.99709,0.34759 -1.31958,-5.04539 -1.31958,-5.04539 -3.01855,1.02033 c -1.66019,0.56118 -4.29046,1.26161 -5.84503,1.55651 -1.55456,0.29489 -2.85385,0.57377 -2.88731,0.61973 -0.0334,0.046 0.54276,2.30079 1.28046,5.01074 0.7377,2.70996 1.29794,4.97054 1.24496,5.02351 -0.48877,0.48878 -9.88741,0.91541 -12.74466,0.57852 z m 8.13924,-46.22024 c 2.38969,-0.81046 5.8065,-4.22727 6.61696,-6.61696 1.88217,-5.54964 -0.46028,-11.52887 -5.58398,-14.25344 -1.55203,-0.82531 -2.16642,-0.93817 -5.11528,-0.93966 -3.05718,-10e-4 -3.51724,0.0902 -5.24066,1.04475 -4.08141,2.26065 -6.23195,6.14466 -5.96412,10.77161 0.25677,4.43589 2.55267,7.79272 6.61867,9.67718 2.35924,1.09343 5.98707,1.2259 8.66841,0.31652 z m 101.825661,7.4688 0.16987,-4.40972 h -4.13509 c -2.2743,0 -4.63119,-0.0992 -5.23753,-0.22049 l -1.10243,-0.22049 v 4.49388 4.49387 l -1.67569,-0.2374 c -3.69382,-0.52332 -12.43542,-3.40104 -12.43542,-4.09371 0,-0.17554 0.97562,-1.9136 2.16803,-3.86235 1.19242,-1.94875 2.10523,-3.60011 2.02848,-3.66969 -0.0768,-0.0696 -0.94942,-0.53322 -1.93924,-1.03029 -0.98982,-0.49708 -2.8746,-1.6397 -4.18841,-2.53917 -1.31381,-0.89947 -2.51085,-1.50405 -2.66009,-1.34353 -0.14924,0.16053 -1.21917,1.84462 -2.37761,3.74244 l -2.10626,3.45057 -2.62381,-2.39224 c -4.08674,-3.72607 -7.67246,-8.03348 -7.13423,-8.57012 0.17177,-0.17126 1.82043,-1.12905 3.6637,-2.12841 1.84326,-0.99937 3.40822,-1.87154 3.47769,-1.93815 0.0695,-0.0666 -0.44423,-1.06033 -1.14156,-2.20825 -0.69732,-1.14792 -1.76131,-3.1416 -2.36442,-4.43041 -0.6031,-1.28881 -1.17707,-2.34329 -1.27548,-2.34329 -0.0984,0 -1.80671,0.87313 -3.7962,1.94028 -1.9895,1.06715 -3.71219,1.94028 -3.8282,1.94028 -0.38002,0 -2.34408,-6.62804 -2.88754,-9.74449 -0.83602,-4.79406 -1.20701,-4.36662 3.79001,-4.36665 l 4.32153,-4e-5 0.0407,-4.33495 c 0.0224,-2.38423 0.15215,-4.68609 0.28836,-5.11525 0.23264,-0.73298 0.14248,-0.78029 -1.48678,-0.78029 -0.95394,0 -2.96057,-0.10364 -4.45918,-0.23032 l -2.72475,-0.23033 0.24332,-1.79815 c 0.39773,-2.93931 3.04396,-11.254381 3.86215,-12.135771 0.0547,-0.0589 1.77309,0.92747 3.81871,2.1919 l 3.71931,2.29898 1.40621,-2.54468 c 0.77342,-1.39958 1.96725,-3.32676 2.65296,-4.28262 0.68571,-0.95587 1.17557,-1.85311 1.08856,-1.99389 -0.087,-0.14077 -1.75147,-1.23505 -3.69881,-2.43174 l -3.54064,-2.1758 1.39605,-1.65115 c 1.87049,-2.21227 5.08218,-5.28386 7.40842,-7.08524 l 1.9007,-1.47185 0.59152,0.98353 c 0.32533,0.54093 1.28999,2.28191 2.14369,3.86882 l 1.55219,2.8853 1.42365,-0.87719 c 0.78302,-0.48246 2.77304,-1.54204 4.42227,-2.35462 1.64924,-0.81258 3.05557,-1.5086 3.12518,-1.5467 0.0696,-0.0381 -0.77281,-1.74599 -1.87204,-3.79528 -1.09923,-2.04931 -1.90391,-3.87922 -1.78818,-4.06648 0.44927,-0.72693 7.73645,-2.63906 12.61768,-3.31085 l 1.32292,-0.18206 v 4.38754 4.38754 l 3.26319,0.003 c 1.79476,0.002 4.09663,0.10318 5.11528,0.22553 l 1.85208,0.22246 v -3.35643 c 0,-1.84604 0.0977,-3.84489 0.2171,-4.4419 0.19842,-0.99208 0.31223,-1.06884 1.32291,-0.89224 3.69697,0.64601 11.77835,3.17987 12.63659,3.96212 0.13303,0.12125 -0.78611,1.86777 -2.04253,3.88117 -1.25642,2.01339 -2.23839,3.69206 -2.18215,3.73038 0.0562,0.0383 1.05475,0.5932 2.21892,1.23307 1.16416,0.63986 3.09256,1.85477 4.28533,2.6998 l 2.16867,1.53642 2.24106,-3.69516 c 1.23257,-2.03234 2.36562,-3.69561 2.51788,-3.69617 0.89458,-0.003 9.77816,9.5076 9.77697,10.46734 -1.9e-4,0.16026 -0.83363,0.74925 -1.85208,1.30887 -1.01845,0.55961 -2.69119,1.48752 -3.7172,2.06202 l -1.86548,1.04454 0.73664,1.11297 c 0.40515,0.61213 1.47888,2.58141 2.38607,4.37617 0.90718,1.794751 1.78846,3.263191 1.95838,3.263191 0.16993,0 1.94147,-0.87567 3.93677,-1.945931 l 3.6278,-1.94593 0.57829,1.44529 c 0.96452,2.410581 2.31469,8.032411 2.5581,10.651431 l 0.22953,2.46967 -4.37642,-0.25144 -4.37642,-0.25145 -0.029,5.05654 c -0.0187,3.26343 0.1064,5.14845 0.35278,5.31573 0.20997,0.14255 2.16372,0.26161 4.34169,0.26458 l 3.95991,0.005 -0.21552,1.14653 c -0.83083,4.41984 -3.15436,11.79823 -4.01112,12.73738 -0.15151,0.16607 -1.85282,-0.66736 -3.7807,-1.85209 -1.92788,-1.18472 -3.59602,-2.15404 -3.70699,-2.15404 -0.11096,0 -0.79232,1.07156 -1.51412,2.38125 -0.7218,1.30969 -1.9404,3.22683 -2.708,4.26032 -0.7676,1.03349 -1.34163,1.92194 -1.27563,1.97434 0.066,0.0524 1.74719,1.08753 3.73597,2.3003 1.98879,1.21278 3.61597,2.29076 3.61597,2.39551 0,0.8991 -9.62978,9.97161 -10.5841,9.97161 -0.11219,0 -1.13771,-1.73509 -2.27894,-3.85576 l -2.07497,-3.85576 -1.52351,1.04821 c -0.83793,0.57651 -2.87448,1.69644 -4.52567,2.48874 l -3.00217,1.44054 1.81778,3.39549 c 0.99978,1.86752 1.97501,3.59776 2.16718,3.84499 0.19216,0.24722 0.28708,0.50733 0.21092,0.57802 -0.81909,0.76031 -11.66739,3.37391 -14.03262,3.38078 -0.39933,10e-4 -0.45756,-0.80426 -0.31872,-4.4083 z m -0.6862,-34.59872 c 2.28279,-0.77782 4.58167,-2.91495 5.54541,-5.1552 2.80385,-6.51774 -1.81294,-13.58035 -8.81439,-13.48396 -2.73585,0.0377 -4.34118,0.66599 -6.36639,2.49179 -2.86098,2.57927 -3.91382,6.71272 -2.63385,10.34054 1.71626,4.86441 7.2913,7.50298 12.26922,5.80683 z"
       id="path1006" />
  </g>
</svg>
