<?xml version="1.0" encoding="UTF-8" standalone="no"?>
<!-- Created with Inkscape (http://www.inkscape.org/) -->

<svg
   version="1.1"
   id="svg182"
   width="2028.1689"
   height="2028.1689"
   viewBox="0 0 2028.1689 2028.1689"
   sodipodi:docname="Engrenages.svg2.svg"
   inkscape:version="1.2.1 (9c6d41e410, 2022-07-14)"
   xmlns:inkscape="http://www.inkscape.org/namespaces/inkscape"
   xmlns:sodipodi="http://sodipodi.sourceforge.net/DTD/sodipodi-0.dtd"
   xmlns="http://www.w3.org/2000/svg"
   xmlns:svg="http://www.w3.org/2000/svg">
  <defs
     id="defs186" />
  <sodipodi:namedview
     id="namedview184"
     pagecolor="#ffffff"
     bordercolor="#000000"
     borderopacity="0.25"
     inkscape:showpageshadow="2"
     inkscape:pageopacity="0.0"
     inkscape:pagecheckerboard="0"
     inkscape:deskcolor="#d1d1d1"
     showgrid="false"
     inkscape:zoom="0.29085787"
     inkscape:cx="1191.3035"
     inkscape:cy="819.98813"
     inkscape:window-width="1920"
     inkscape:window-height="991"
     inkscape:window-x="-9"
     inkscape:window-y="-9"
     inkscape:window-maximized="1"
     inkscape:current-layer="g188" />
  <g
     inkscape:groupmode="layer"
     inkscape:label="Image"
     id="g188">
    <path
       style="fill:#000000;stroke-width:3.38028"
       d="m 527.63118,1435.2771 c -5.57746,-0.6577 -17.97535,-2.0414 -27.55088,-3.0751 l -17.41,-1.8793 12.90138,-48.8129 c 7.09579,-26.847 11.88805,-48.8367 10.64948,-48.8658 -9.76756,-0.2296 -67.66594,-14.5934 -86.63506,-21.4928 -12.94594,-4.7087 -23.71366,-8.252 -23.92827,-7.8739 -0.21465,0.3779 -6.16131,22.2077 -13.21491,48.5104 l -12.82472,47.8232 -12.26109,-5.0272 c -25.71466,-10.5432 -67.38804,-33.06 -93.38788,-50.4591 -46.11027,-30.857 -45.44966,-23.3049 -5.5414,-63.3494 l 34.78433,-34.9032 -41.34986,-41.3498 -41.34986,-41.3499 -34.90312,34.7844 c -33.50782,33.3938 -35.10999,34.5188 -40.07793,28.1426 -33.54194,-43.0502 -85.14142,-140.1629 -74.473593,-140.1629 2.652338,0 91.287783,-24.2159 92.331113,-25.2256 0.53293,-0.5157 -1.96643,-8.3849 -5.55413,-17.4869 -5.46867,-13.8742 -17.67356,-61.08803 -22.6912,-87.77953 -1.31927,-7.0179 -1.97054,-6.9412 -49.383468,5.8158 -26.425611,7.1102 -48.50241,12.4717 -49.059554,11.9146 -4.261053,-4.2611 -7.248772,-89.253 -4.374281,-124.4356 1.848711,-22.6275 3.735231,-41.4996 4.192267,-41.9381 0.457036,-0.4385 22.126748,4.9685 48.154916,12.0155 26.02817,7.047 47.78821,12.3985 48.35564,11.8923 0.56743,-0.5062 3.79902,-14.3998 7.18131,-30.8746 3.38229,-16.4748 10.09569,-41.2836 14.91868,-55.1306 4.82299,-13.847 8.43647,-25.421 8.02996,-25.72 -0.40651,-0.2992 -22.29414,-6.2636 -48.63918,-13.2547 l -47.900075,-12.711 11.711638,-25.7943 c 15.844773,-34.8973 35.245157,-68.411 55.802907,-96.3982 l 17.10009,-23.2799 34.70811,34.59 34.70811,34.59 41.34962,-41.3497 41.34963,-41.3496 -34.58999,-34.7081 -34.58998,-34.7081 23.27993,-17.1001 c 27.98714,-20.5577 61.50084,-39.9581 96.39816,-55.8029 l 25.79432,-11.7117 12.71104,47.9001 c 6.99106,26.3451 12.95567,48.2327 13.25466,48.6392 0.29881,0.4065 11.873,-3.2069 25.72002,-8.03 13.84698,-4.8229 38.65578,-11.5364 55.1306,-14.9186 16.47481,-3.3823 30.36838,-6.6139 30.87461,-7.1813 0.50623,-0.5675 -4.84533,-22.3275 -11.89234,-48.3557 -7.04701,-26.0281 -12.45049,-47.7013 -12.00777,-48.1626 0.44271,-0.4612 19.87048,-2.3868 43.17282,-4.279 28.97598,-2.3529 54.99911,-2.3331 82.32916,0.063 21.97869,1.9267 40.39226,3.9342 40.91911,4.461 0.52682,0.5269 -4.85952,22.5788 -11.96967,49.0045 -12.75702,47.4129 -12.83372,48.0641 -5.81581,49.3834 26.69151,5.0177 73.90532,17.2225 87.77945,22.6912 9.10209,3.5877 16.97121,6.0871 17.48698,5.5541 1.00965,-1.0433 25.22555,-89.6788 25.22555,-92.3311 0,-10.6678 97.11268,40.9316 140.16286,74.4736 6.37623,4.9679 5.2512,6.5701 -28.1426,40.0779 l -34.78431,34.9031 41.34983,41.3499 41.34987,41.3498 34.90313,-34.7843 c 40.04454,-39.9082 32.49242,-40.5688 63.34937,5.5414 17.3991,25.9999 39.916,67.6733 50.4591,93.3879 l 5.0272,12.2611 -47.8232,12.8247 c -26.3027,7.0536 -48.13239,13.0003 -48.51037,13.2149 -0.37802,0.2147 3.16522,10.9824 7.87389,23.9283 6.89942,18.9691 21.26308,76.8674 21.49278,86.635 0.03,1.2386 21.9423,-3.5335 48.696,-10.6046 l 48.643,-12.8564 1.9326,12.2946 c 4.7388,30.147 5.9182,86.1871 2.4943,118.5154 -2.0524,19.3791 -4.1519,35.6549 -4.6654,36.1684 -0.5135,0.5135 -22.179,-4.8498 -48.1455,-11.9184 -25.9666,-7.0686 -47.5722,-12.5897 -48.0125,-12.2692 -0.4403,0.3205 -3.1125,12.7702 -5.9382,27.6659 -2.8256,14.8957 -9.53705,40.09873 -14.91423,56.00653 l -9.77672,28.9234 48.34435,12.6441 48.3445,12.6441 -3.4757,9.9702 c -9.921,28.4595 -58.8864,112.2983 -77.50404,132.7029 -1.83157,2.0074 -16.40312,-10.1121 -37.81791,-31.454 l -34.83823,-34.7196 -41.3501,41.3501 -41.35011,41.3501 33.98924,34.1052 c 18.69407,18.7579 33.9892,35.0519 33.9892,36.2088 0,7.0431 -106.08973,69.9397 -134.9239,79.9913 l -9.55403,3.3306 -12.64407,-48.3445 -12.64408,-48.3444 -28.92338,9.7767 c -15.90784,5.3772 -41.11078,12.0886 -56.0065,14.9143 -14.89572,2.8257 -27.34536,5.4978 -27.66591,5.9382 -0.32045,0.4403 5.20059,22.0459 12.2692,48.0125 7.06861,25.9665 12.4367,47.6271 11.92912,48.1347 -4.68338,4.6834 -94.74024,8.7714 -122.11812,5.5434 z m 77.98939,-442.87783 c 22.89779,-7.7658 55.6373,-40.5053 63.40309,-63.4031 18.03475,-53.176 -4.41035,-110.4684 -53.50516,-136.575 -14.87141,-7.908 -20.75841,-8.9895 -49.01408,-9.0037 -29.29362,-0.014 -33.70184,0.8639 -50.21547,10.0106 -39.10772,21.6613 -59.71392,58.8775 -57.14761,103.2125 2.46034,42.5043 24.45938,74.6692 63.41942,92.7258 22.60601,10.4772 57.36754,11.74653 83.05981,3.0329 z m 975.68323,71.56533 1.6278,-42.2536 h -39.6221 c -21.7921,0 -44.3756,-0.9507 -50.1854,-2.1126 l -10.5634,-2.1127 v 43.0598 43.0599 l -16.0564,-2.2748 c -35.3938,-5.0144 -119.1549,-32.5884 -119.1549,-39.2255 0,-1.682 9.3483,-18.3359 20.7739,-37.0086 11.4256,-18.6727 20.1721,-34.49593 19.4366,-35.16273 -0.7355,-0.6667 -9.0972,-5.1092 -18.5815,-9.8721 -9.4844,-4.7629 -27.5442,-15.7114 -40.133,-24.33 -12.5888,-8.6186 -24.0587,-14.4117 -25.4887,-12.8736 -1.4301,1.5381 -11.682,17.675 -22.7821,35.8597 l -20.1819,33.06303 -25.1411,-22.92223 c -39.1587,-35.7028 -73.5167,-76.976 -68.3595,-82.118 1.6459,-1.6411 17.4432,-10.8185 35.1052,-20.3943 17.662,-9.5758 32.6573,-17.9329 33.3229,-18.5712 0.6656,-0.6383 -4.2566,-10.1599 -10.9383,-21.1592 -6.6817,-10.9992 -16.8767,-30.1025 -22.6556,-42.4517 -5.7789,-12.3492 -11.2786,-22.4531 -12.2216,-22.4531 -0.943,0 -17.3116,8.3662 -36.3748,18.5915 -19.0631,10.2254 -35.5698,18.5915 -36.6814,18.5915 -3.6413,0 -22.4607,-63.5091 -27.6681,-93.3706 -8.0106,-45.9363 -11.5655,-41.8406 36.3155,-41.8409 l 41.4085,-3e-4 0.39,-41.5371 c 0.2143,-22.8454 1.4578,-44.9016 2.7629,-49.0138 2.2292,-7.0233 1.3653,-7.4766 -14.2461,-7.4766 -9.1406,0 -28.3679,-0.9932 -42.7274,-2.207 l -26.1083,-2.207 2.3314,-17.2296 c 3.8111,-28.1643 29.167,-107.8384 37.0068,-116.2838 0.5238,-0.5643 16.9895,8.8869 36.5905,21.0026 l 35.638,22.0286 13.4742,-24.3829 c 7.4108,-13.4106 18.85,-31.8767 25.4204,-41.0357 6.5705,-9.159 11.2642,-17.7563 10.4305,-19.1052 -0.8336,-1.3488 -16.7824,-11.8341 -35.4417,-23.3007 l -33.926,-20.8483 13.3769,-15.8211 c 17.9228,-21.1978 48.6969,-50.6295 70.9866,-67.8901 l 18.2124,-14.1032 5.6678,9.4241 c 3.1173,5.1832 12.3607,21.8651 20.5407,37.0707 l 14.8729,27.6467 13.6413,-8.4052 c 7.5028,-4.6229 26.5709,-14.7756 42.3738,-22.5617 15.8028,-7.7861 29.2781,-14.4552 29.9451,-14.8204 0.667,-0.3651 -7.405,-16.7298 -17.9377,-36.366 -10.5327,-19.6362 -18.2431,-37.1702 -17.1341,-38.9645 4.3048,-6.9654 74.1299,-25.2873 120.9013,-31.7242 l 12.676,-1.7446 v 42.041 42.041 l 31.2677,0.03 c 17.1971,0.017 39.2535,0.9886 49.014,2.161 l 17.7465,2.1316 v -32.161 c 0,-17.6885 0.9361,-36.8414 2.0802,-42.5618 1.9012,-9.5061 2.9918,-10.2416 12.676,-8.5494 35.424,6.19 112.859,30.4692 121.0825,37.9646 1.2747,1.1618 -7.5324,17.8969 -19.5713,37.189 -12.0388,19.2921 -21.448,35.377 -20.9091,35.7442 0.5388,0.3672 10.1065,5.684 21.2614,11.8151 11.155,6.1311 29.6327,17.7722 41.0617,25.8692 l 20.78,14.7218 21.4735,-35.4066 c 11.8104,-19.4737 22.6672,-35.411 24.1261,-35.4163 8.5718,-0.03 93.6933,91.1009 93.682,100.297 0,1.5356 -7.9878,7.1792 -17.7465,12.5414 -9.7586,5.3622 -25.7867,14.2533 -35.6178,19.7581 l -17.8749,10.0087 7.0584,10.6644 c 3.8821,5.8654 14.1705,24.7348 22.8631,41.932 8.6926,17.1972 17.1368,31.2676 18.7651,31.2676 1.6282,0 18.6029,-8.3906 37.7216,-18.6457 l 34.7613,-18.6457 5.5411,13.8486 c 9.242,23.098 22.1792,76.9657 24.5115,102.0609 l 2.1993,23.6642 -41.9344,-2.4093 -41.9345,-2.4094 -0.2775,48.4513 c -0.1791,31.2699 1.0195,49.332 3.3803,50.9347 2.0119,1.366 20.7326,2.5068 41.6016,2.5353 l 37.9435,0.051 -2.0651,10.9859 c -7.961,42.3504 -30.2248,113.0494 -38.4342,122.0482 -1.4517,1.5914 -17.7535,-6.3945 -36.2262,-17.7464 -18.4728,-11.3519 -34.4567,-20.6399 -35.52,-20.6399 -1.0632,0 -7.592,10.2677 -14.5082,22.8169 -6.9162,12.5493 -18.5927,30.9192 -25.9478,40.822 -7.355,9.9029 -12.8554,18.4159 -12.223,18.9179 0.6325,0.502 16.7414,10.4206 35.7978,22.0413 19.0563,11.6208 34.6478,21.9498 34.6478,22.9536 0,8.615 -92.2716,95.54693 -101.4158,95.54693 -1.0749,0 -10.9014,-16.6255 -21.8366,-36.94553 l -19.8821,-36.9455 -14.5981,10.0438 c -8.029,5.524 -27.543,16.2552 -43.3646,23.8469 l -28.7664,13.8031 17.4178,32.53523 c 9.5798,17.8944 18.9243,34.4734 20.7656,36.8423 1.8413,2.3689 2.7508,4.8612 2.0211,5.5386 -7.8485,7.2852 -111.7958,32.3285 -134.4592,32.3943 -3.8263,0.01 -4.3843,-7.7063 -3.054,-42.2399 z m -6.575,-331.52153 c 21.8734,-7.453 43.9011,-27.9307 53.1355,-49.3966 26.8662,-62.4523 -17.3714,-130.1256 -84.4586,-129.2019 -26.2146,0.3609 -41.5968,6.3814 -61.0021,23.8761 -27.4136,24.7143 -37.5018,64.3206 -25.2373,99.082 16.4451,46.6102 69.8645,71.8928 117.5625,55.6404 z"
       id="path300" />
  </g>
</svg>
